<?xml version="1.0" encoding="UTF-8"?>
<svg id="Layer_1" data-name="Layer 1" xmlns="http://www.w3.org/2000/svg" xmlns:xlink="http://www.w3.org/1999/xlink" viewBox="0 0 1126 282.2">
  <defs>
    <style>
      .cls-1 {
        fill: #fff;
      }

      .cls-2 {
        fill: #e20b4c;
      }

      .cls-3 {
        clip-path: url(#clippath);
      }

      .cls-4 {
        fill: none;
      }
    </style>
    <clipPath id="clippath">
      <path class="cls-4" d="M65.31,90.8h28.55c4.64,0,7.91,0,9.8,.17,37.67,2.58,56.59,31.3,56.59,60.03s-18.92,56.59-56.59,60.03c-1.89,.17-5.16,.17-9.8,.17h-28.55c-1.38,0-2.24-.86-2.24-2.24V93.04c0-1.38,.86-2.24,2.24-2.24Zm18.4,96.15c0,2.92,1.89,4.82,4.82,4.82h4.47c4.99,0,7.91,0,9.8-.17,49.36-4.82,47.99-81.53-4.99-81.53h-9.29c-2.92,0-4.82,1.89-4.82,4.82v72.07Zm146.89,28.38c-24.25,0-48.68-16.68-48.68-49.88V93.04c0-1.38,.86-2.24,2.24-2.24h16.17c1.38,0,2.24,.86,2.24,2.24v72.41c0,18.75,14.1,28.04,28.04,28.04s28.04-9.29,28.04-28.04V93.04c0-1.38,.86-2.24,2.24-2.24h16.17c1.2,0,2.24,.86,2.24,2.24v72.41c0,33.2-24.25,49.88-48.68,49.88Zm73.1-122.29c0-1.38,.86-2.24,2.24-2.24h2.58c1.2,0,2.75,.69,3.61,1.55l65.88,70.69c.86,.86,1.38,1.2,2.06,1.2s1.2-.86,1.2-2.58V93.04c0-1.38,.86-2.24,2.24-2.24h16.17c1.38,0,2.24,.86,2.24,2.24v115.93c0,1.38-.86,2.24-2.24,2.24h-2.41c-1.38,0-2.92-.69-3.78-1.72l-65.88-70.86c-.69-.86-1.38-1.2-2.06-1.2s-1.2,.86-1.2,2.58v68.97c0,1.38-.86,2.24-2.24,2.24h-16.17c-1.38,0-2.24-.86-2.24-2.24V93.04Zm183.69-4.82c12.04,0,23.56,4.82,34.06,10.84,1.2,.69,1.2,2.06,.52,3.1l-9.29,13.24c-.86,1.2-1.89,1.38-3.1,.52-5.16-3.78-12.9-7.22-22.02-7.22-54.18,0-54.18,84.62,0,84.62,6.71,0,20.12-1.03,20.12-10.32v-13.24c0-2.92-1.89-4.99-4.82-4.99h-21.16c-1.38,0-2.24-.86-2.24-2.24v-14.79c0-1.38,.86-2.24,2.24-2.24h44.55c1.38,0,2.24,.86,2.24,2.24v49.36c0,1.38-.69,2.75-1.72,3.61-9.98,7.4-24.42,13.07-39.39,13.07-41.45,0-62.09-31.48-62.09-62.78s20.64-62.78,62.09-62.78Zm65.53,4.82c0-1.38,.86-2.24,2.24-2.24h73.44c1.38,0,2.24,.86,2.24,2.24v14.79c0,1.38-.86,2.24-2.24,2.24h-50.22c-2.92,0-4.82,1.89-4.82,4.82v21.67c0,2.92,1.89,4.82,4.82,4.82h37.84c1.38,0,2.24,.86,2.24,2.24v14.79c0,1.38-.86,2.24-2.24,2.24h-37.84c-2.92,0-4.82,1.89-4.82,4.82v21.67c0,2.92,1.89,4.82,4.82,4.82h50.22c1.38,0,2.24,.86,2.24,2.24v14.79c0,1.38-.86,2.24-2.24,2.24h-73.44c-1.38,0-2.24-.86-2.24-2.24V93.04Zm152.74-4.99c30.96,0,61.92,20.98,61.92,62.95s-30.96,62.95-61.92,62.95-62.09-20.98-62.09-62.95,30.96-62.95,62.09-62.95Zm0,105.09c20.81,0,41.79-13.93,41.79-42.14s-20.98-42.14-41.79-42.14-41.8,13.93-41.8,42.14,20.81,42.14,41.8,42.14Zm85.31-100.1c0-1.38,.86-2.24,2.24-2.24h2.58c1.2,0,2.75,.69,3.61,1.55l65.88,70.69c.86,.86,1.38,1.2,2.06,1.2s1.2-.86,1.2-2.58V93.04c0-1.38,.86-2.24,2.24-2.24h16.17c1.38,0,2.24,.86,2.24,2.24v115.93c0,1.38-.86,2.24-2.24,2.24h-2.41c-1.38,0-2.92-.69-3.78-1.72l-88.23-94.94c-.86-1.03-1.55-2.58-1.55-3.96v-17.54Zm0,47.64c0-1.38,.69-1.55,1.55-.52l17.54,18.92c.86,.86,1.55,2.41,1.55,3.78v46.09c0,1.38-.86,2.24-2.24,2.24h-16.17c-1.38,0-2.24-.86-2.24-2.24v-68.28Zm121.6-32.85v-14.79c0-1.38,.86-2.24,2.24-2.24h73.44c1.38,0,2.24,.86,2.24,2.24v14.79c0,1.38-.86,2.24-2.24,2.24h-73.44c-1.38,0-2.24-.86-2.24-2.24Zm0,35.78c0-1.38,.86-2.24,2.24-2.24h73.44c1.38,0,2.24,.86,2.24,2.24v14.79c0,1.38-.86,2.24-2.24,2.24h-73.44c-1.38,0-2.24-.86-2.24-2.24v-14.79Zm2.24,48.33h73.44c1.38,0,2.24,.86,2.24,2.24v14.79c0,1.38-.86,2.24-2.24,2.24h-73.44c-1.38,0-2.24-.86-2.24-2.24v-14.79c0-1.38,.86-2.24,2.24-2.24Zm93.4,17.37l33.88-54.18c1.55-2.41,1.55-5.85,0-8.26l-33.88-54.18c-.69-1.2-.34-1.89,1.03-1.89h19.61c1.38,0,2.75,.69,3.44,1.89l72.93,116.61c.69,1.2,.17,1.89-1.03,1.89h-19.61c-1.38,0-2.75-.69-3.44-1.89l-21.84-34.92c-.86-1.2-1.72-1.89-2.58-1.89s-1.72,.69-2.58,1.89l-21.84,34.92c-.69,1.2-2.06,1.89-3.44,1.89h-19.61c-1.38,0-1.72-.69-1.03-1.89Zm55.73-89.09l17.2-27.52c.69-1.2,2.06-1.89,3.44-1.89h19.61c1.2,0,1.72,.69,1.03,1.89l-29.07,46.44c-.69,1.2-1.72,1.2-2.41,0l-9.8-15.14c-.69-1.2-.69-2.58,0-3.78Z"/>
    </clipPath>
  </defs>
  <g class="cls-3">
    <rect class="cls-1" y="14.2" width="769" height="268"/>
    <rect class="cls-2" x="778.45" width="347.55" height="282.2"/>
  </g>
</svg>